HIERARCHY
ROOT Joint1
{
	OFFSET 0.000000 0.000000 0.000000
	CHANNELS 6 Xposition Yposition Zposition Xrotation Yrotation Zrotation
	JOINT Joint2
	{
		OFFSET -0.000000 0.000000 1.456275
		CHANNELS 6 Xposition Yposition Zposition Xrotation Yrotation Zrotation
		JOINT Joint3
		{
			OFFSET -0.000000 0.000002 1.471446
			CHANNELS 6 Xposition Yposition Zposition Xrotation Yrotation Zrotation
			JOINT Joint4
			{
				OFFSET 0.625745 0.000000 0.917755
				CHANNELS 6 Xposition Yposition Zposition Xrotation Yrotation Zrotation
				JOINT Joint5
				{
					OFFSET -0.629534 0.000001 0.940221
					CHANNELS 6 Xposition Yposition Zposition Xrotation Yrotation Zrotation
					JOINT Joint6
					{
						OFFSET -0.000001 0.113772 1.960660
						CHANNELS 6 Xposition Yposition Zposition Xrotation Yrotation Zrotation
						JOINT Joint7
						{
							OFFSET -0.669733 -0.113771 0.388340
							CHANNELS 6 Xposition Yposition Zposition Xrotation Yrotation Zrotation
							End Site
							{
								OFFSET 0.005509 0.005509 0.438980
							}
						}
					}
				}
			}
		}
	}
}
MOTION
Frames: 22
Frame Time: 0.041667
0.000000 0.000000 0.000000 -0.000000 1.019410 -51.992957 -0.000000 0.000000 1.456275 0.000006 -80.935010 -0.000010 -0.000000 0.000002 1.471446 -0.000001 -1.133456 45.144480 0.625745 0.000000 0.917755 0.000000 19.030493 -0.000001 -0.629534 0.000001 0.940221 0.000002 1.709737 -64.185671 -0.000001 0.113772 1.960660 -88.303875 116.239902 0.000009 -0.669733 -0.113771 0.388340 0.266874 2.250558 27.884152 
0.000000 0.000000 0.000000 -0.000000 1.019410 -51.936096 -0.000000 0.000000 1.456275 0.000017 -80.895681 0.000005 -0.000001 0.000002 1.471446 -0.000001 -1.133457 45.095067 0.625745 0.000000 0.917755 -0.000002 19.157352 -0.000001 -0.629534 0.000001 0.940221 0.000002 1.709735 -64.115484 -0.000001 0.113772 1.960661 -88.303882 116.211161 0.000006 -0.669733 -0.113771 0.388340 0.267479 2.252544 28.001187 
0.000000 0.000000 0.000000 -0.000000 1.019410 -51.844285 -0.000000 0.000000 1.456275 -0.000002 -80.832181 0.000005 -0.000000 0.000002 1.471446 -0.000003 -1.133456 45.015294 0.625744 0.000000 0.917755 -0.000002 19.362176 -0.000002 -0.629534 0.000001 0.940220 -0.000001 1.709736 -64.002172 -0.000001 0.113772 1.960660 -88.303882 116.164784 0.000009 -0.669733 -0.113771 0.388340 0.268456 2.255754 28.190160 
0.000000 0.000000 0.000000 -0.000000 1.019410 -51.719955 -0.000000 0.000000 1.456275 -0.000006 -80.746182 0.000000 -0.000000 0.000002 1.471446 -0.000002 -1.133456 44.907271 0.625744 0.000000 0.917755 0.000002 19.639562 0.000000 -0.629534 0.000001 0.940221 0.000001 1.709736 -63.848711 -0.000001 0.113772 1.960661 -88.303882 116.101960 0.000004 -0.669733 -0.113771 0.388340 0.269764 2.260102 28.446061 
0.000000 0.000000 0.000000 -0.000000 1.019410 -51.565524 -0.000000 0.000000 1.456275 -0.000012 -80.639379 0.000005 -0.000000 0.000002 1.471446 -0.000001 -1.133456 44.773089 0.625745 0.000001 0.917755 -0.000002 19.984092 -0.000002 -0.629534 0.000001 0.940221 -0.000001 1.709737 -63.658114 -0.000001 0.113772 1.960660 -88.303882 116.023945 0.000004 -0.669733 -0.113771 0.388340 0.271352 2.265516 28.763918 
0.000000 0.000000 0.000000 -0.000000 1.019410 -51.383418 -0.000000 0.000000 1.456275 0.000007 -80.513423 -0.000001 -0.000000 0.000002 1.471445 -0.000001 -1.133455 44.614871 0.625744 0.000000 0.917756 0.000001 20.390358 0.000000 -0.629534 0.000001 0.940221 0.000001 1.709735 -63.433360 -0.000001 0.113773 1.960660 -88.303889 115.931943 0.000006 -0.669733 -0.113771 0.388339 0.273195 2.271916 29.138738 
0.000000 0.000000 0.000000 -0.000000 1.019410 -51.176063 -0.000000 0.000000 1.456275 -0.000002 -80.370010 -0.000015 -0.000000 0.000002 1.471446 -0.000003 -1.133456 44.434711 0.625744 0.000001 0.917755 -0.000003 20.852965 0.000000 -0.629533 0.000001 0.940221 -0.000001 1.709738 -63.177433 -0.000001 0.113772 1.960660 -88.303875 115.827181 0.000011 -0.669733 -0.113771 0.388340 0.275243 2.279210 29.565526 
0.000000 0.000000 0.000000 -0.000000 1.019410 -50.945882 -0.000000 0.000000 1.456275 -0.000025 -80.210811 0.000006 -0.000001 0.000002 1.471446 0.000001 -1.133456 44.234716 0.625745 0.000001 0.917756 -0.000003 21.366490 0.000002 -0.629533 0.000001 0.940221 -0.000000 1.709737 -62.893338 -0.000001 0.113773 1.960661 -88.303875 115.710877 0.000000 -0.669733 -0.113771 0.388340 0.277446 2.287323 30.039295 
0.000000 0.000000 0.000000 -0.000000 1.019410 -50.695303 -0.000000 0.000000 1.456275 0.000020 -80.037502 0.000002 -0.000000 0.000002 1.471446 -0.000005 -1.133456 44.016994 0.625745 0.000000 0.917755 0.000001 21.925525 0.000002 -0.629534 0.000001 0.940221 -0.000003 1.709736 -62.584081 -0.000001 0.113772 1.960661 -88.303889 115.584286 0.000005 -0.669733 -0.113771 0.388340 0.279769 2.296179 30.555063 
0.000000 0.000000 0.000000 -0.000000 1.019410 -50.426747 -0.000000 -0.000000 1.456275 -0.000013 -79.851762 -0.000004 -0.000000 0.000002 1.471446 -0.000002 -1.133455 43.783661 0.625745 0.000000 0.917755 -0.000001 22.524675 0.000003 -0.629534 0.000001 0.940221 -0.000002 1.709738 -62.252619 -0.000001 0.113772 1.960661 -88.303882 115.448598 0.000005 -0.669733 -0.113771 0.388340 0.282181 2.305691 31.107834 
0.000000 0.000000 0.000000 -0.000000 1.019410 -50.142645 -0.000000 0.000000 1.456275 -0.000008 -79.655258 -0.000001 -0.000000 0.000002 1.471446 -0.000002 -1.133457 43.536811 0.625745 0.000000 0.917755 -0.000001 23.158513 0.000003 -0.629534 0.000001 0.940221 -0.000004 1.709736 -61.901963 -0.000001 0.113772 1.960661 -88.303882 115.305054 -0.000002 -0.669734 -0.113771 0.388339 0.284622 2.315780 31.692617 
0.000000 0.000000 0.000000 -0.000000 1.019410 -49.845399 -0.000000 0.000000 1.456275 0.000022 -79.449676 0.000004 -0.000001 0.000002 1.471446 0.000004 -1.133458 43.278555 0.625744 0.000000 0.917755 -0.000005 23.821644 0.000001 -0.629533 0.000001 0.940221 -0.000000 1.709738 -61.535107 -0.000000 0.113772 1.960661 -88.303875 115.154886 0.000002 -0.669733 -0.113771 0.388340 0.287063 2.326362 32.304425 
0.000000 0.000000 0.000000 -0.000000 1.019410 -49.536329 -0.000000 0.000000 1.456275 0.000005 -79.235911 -0.000009 -0.000000 0.000002 1.471446 -0.000002 -1.133457 43.010009 0.625745 0.000000 0.917755 -0.000001 24.511169 0.000002 -0.629534 0.000001 0.940221 -0.000000 1.709735 -61.153648 -0.000001 0.113772 1.960660 -88.303875 114.998720 -0.000000 -0.669733 -0.113771 0.388340 0.289486 2.337391 32.940602 
0.000000 0.000000 0.000000 -0.000000 1.019410 -49.212206 -0.000000 0.000000 1.456275 -0.000005 -79.011738 -0.000010 -0.000000 0.000002 1.471445 -0.000003 -1.133456 42.728396 0.625745 0.000000 0.917755 0.000001 25.234276 0.000002 -0.629534 0.000001 0.940221 -0.000001 1.709738 -60.753611 -0.000001 0.113772 1.960661 -88.303882 114.834973 0.000011 -0.669733 -0.113771 0.388340 0.291899 2.348988 33.607748 
0.000000 0.000000 0.000000 -0.000000 1.019410 -48.868692 -0.000000 0.000000 1.456275 -0.000007 -78.774156 -0.000009 -0.000000 0.000002 1.471446 0.000001 -1.133457 42.429938 0.625745 0.000000 0.917755 -0.000004 26.000645 0.000001 -0.629534 0.000001 0.940220 -0.000003 1.709736 -60.329633 -0.000001 0.113772 1.960660 -88.303868 114.661418 0.000001 -0.669733 -0.113770 0.388341 0.294296 2.361307 34.314829 
0.000000 0.000000 0.000000 -0.000000 1.019410 -48.501440 -0.000000 0.000000 1.456275 -0.000013 -78.520148 0.000002 -0.000000 0.000002 1.471445 0.000002 -1.133455 42.110852 0.625745 0.000001 0.917755 -0.000006 26.819974 -0.000001 -0.629534 0.000001 0.940221 -0.000004 1.709740 -59.876368 -0.000001 0.113772 1.960661 -88.303882 114.475876 0.000008 -0.669733 -0.113771 0.388340 0.296702 2.374508 35.070774 
0.000000 0.000000 0.000000 -0.000000 1.019410 -48.106112 -0.000000 0.000000 1.456275 0.000012 -78.246715 -0.000002 -0.000000 0.000002 1.471446 -0.000001 -1.133456 41.767351 0.625744 0.000000 0.917755 -0.000001 27.701958 -0.000000 -0.629534 0.000001 0.940221 0.000001 1.709739 -59.388447 -0.000001 0.113772 1.960661 -88.303882 114.276127 0.000008 -0.669733 -0.113770 0.388339 0.299097 2.388750 35.884530 
0.000000 0.000000 0.000000 -0.000000 1.019410 -47.678347 -0.000000 0.000000 1.456275 -0.000002 -77.950866 -0.000002 -0.000000 0.000002 1.471446 0.000001 -1.133456 41.395693 0.625744 0.000000 0.917755 -0.000002 28.656284 0.000002 -0.629534 0.000001 0.940221 -0.000001 1.709737 -58.860480 -0.000001 0.113772 1.960661 -88.303868 114.060013 0.000002 -0.669733 -0.113771 0.388340 0.301448 2.404203 36.765044 
0.000000 0.000000 0.000000 -0.000000 1.019410 -47.213112 -0.000000 0.000000 1.456275 0.000014 -77.629096 -0.000004 -0.000000 0.000002 1.471446 0.000001 -1.133457 40.991469 0.625744 0.000000 0.917755 -0.000001 29.694213 0.000002 -0.629534 0.000001 0.940221 0.000002 1.709739 -58.286294 -0.000001 0.113772 1.960660 -88.303889 113.824966 0.000014 -0.669733 -0.113771 0.388340 0.303754 2.421042 37.722711 
0.000000 0.000000 0.000000 -0.000000 1.019410 -46.702552 -0.000000 0.000000 1.456275 -0.000010 -77.275968 0.000008 -0.000000 0.000002 1.471446 0.000002 -1.133456 40.547872 0.625745 0.000000 0.917755 -0.000002 30.833250 -0.000000 -0.629534 0.000001 0.940220 -0.000001 1.709736 -57.656147 -0.000000 0.113772 1.960660 -88.303875 113.567003 -0.000014 -0.669733 -0.113771 0.388340 0.305943 2.439564 38.773679 
0.000000 0.000000 0.000000 -0.000000 1.019410 -46.138129 -0.000000 0.000000 1.456275 -0.000009 -76.885589 -0.000002 -0.000000 0.000002 1.471446 -0.000002 -1.133456 40.057468 0.625744 0.000000 0.917755 0.000005 32.092463 -0.000004 -0.629534 0.000001 0.940221 -0.000005 1.709735 -56.959526 -0.000001 0.113772 1.960661 -88.303875 113.281829 -0.000006 -0.669733 -0.113771 0.388341 0.307976 2.460086 39.935536 
0.000000 0.000000 0.000000 -0.000000 1.019410 -45.511292 -0.000000 0.000000 1.456275 0.000011 -76.452049 -0.000004 -0.000000 0.000002 1.471446 -0.000001 -1.133456 39.512836 0.625744 0.000000 0.917755 0.000003 33.490921 -0.000004 -0.629534 0.000001 0.940221 -0.000002 1.709738 -56.185870 -0.000001 0.113772 1.960661 -88.303889 112.965141 0.000004 -0.669733 -0.113771 0.388340 0.309742 2.482923 41.225905 
